<svg width="35" height="34" viewBox="0 0 35 34" fill="none" xmlns="http://www.w3.org/2000/svg">
<path d="M11.1572 31.0952C15.4387 31.0952 18.9095 27.6244 18.9095 23.3429C18.9095 19.0613 15.4387 15.5905 11.1572 15.5905C6.87564 15.5905 3.40479 19.0613 3.40479 23.3429C3.40479 24.7549 3.7823 26.0787 4.44191 27.219L3.7924 30.7076L7.28098 30.0581C8.42125 30.7178 9.74512 31.0952 11.1572 31.0952Z" stroke="white" stroke-width="1.5" stroke-linecap="round" stroke-linejoin="round"/>
<path d="M22.1271 25.3131C23.5032 25.0914 24.7959 24.6206 25.9576 23.9485L31.0319 24.8933L30.0871 19.819C31.0465 18.1605 31.5957 16.2348 31.5957 14.1809C31.5957 7.95327 26.5472 2.90475 20.3195 2.90475C14.6428 2.90475 9.94585 7.09947 9.15918 12.5584" stroke="white" stroke-width="1.5" stroke-linecap="round" stroke-linejoin="round"/>
</svg>
