<svg width="32" height="32" viewBox="0 0 32 32" fill="none" xmlns="http://www.w3.org/2000/svg">
<path d="M10.6665 20.5333V11.4666C10.6665 11.0248 11.0247 10.6666 11.4665 10.6666H20.5332C20.975 10.6666 21.3332 11.0248 21.3332 11.4666V20.5333C21.3332 20.9752 20.975 21.3333 20.5332 21.3333H11.4665C11.0247 21.3333 10.6665 20.9752 10.6665 20.5333Z" stroke="white" stroke-width="1.5" stroke-linecap="round" stroke-linejoin="round"/>
<path d="M26.6668 6.13337V25.8667C26.6668 26.3086 26.3087 26.6667 25.8668 26.6667H6.1335C5.69167 26.6667 5.3335 26.3086 5.3335 25.8667V6.13337C5.3335 5.69155 5.69167 5.33337 6.1335 5.33337H25.8668C26.3087 5.33337 26.6668 5.69155 26.6668 6.13337Z" stroke="white" stroke-width="1.5" stroke-linecap="round" stroke-linejoin="round"/>
<path d="M22.6665 5.33329V2.66663" stroke="white" stroke-width="1.5" stroke-linecap="round" stroke-linejoin="round"/>
<path d="M16 5.33329V2.66663" stroke="white" stroke-width="1.5" stroke-linecap="round" stroke-linejoin="round"/>
<path d="M9.3335 5.33329V2.66663" stroke="white" stroke-width="1.5" stroke-linecap="round" stroke-linejoin="round"/>
<path d="M9.3335 26.6666V29.3333" stroke="white" stroke-width="1.5" stroke-linecap="round" stroke-linejoin="round"/>
<path d="M16 26.6666V29.3333" stroke="white" stroke-width="1.5" stroke-linecap="round" stroke-linejoin="round"/>
<path d="M22.6665 26.6666V29.3333" stroke="white" stroke-width="1.5" stroke-linecap="round" stroke-linejoin="round"/>
<path d="M26.6665 22.6666H29.3332" stroke="white" stroke-width="1.5" stroke-linecap="round" stroke-linejoin="round"/>
<path d="M26.6665 16H29.3332" stroke="white" stroke-width="1.5" stroke-linecap="round" stroke-linejoin="round"/>
<path d="M26.6665 9.33337H29.3332" stroke="white" stroke-width="1.5" stroke-linecap="round" stroke-linejoin="round"/>
<path d="M5.33317 22.6666H2.6665" stroke="white" stroke-width="1.5" stroke-linecap="round" stroke-linejoin="round"/>
<path d="M5.33317 16H2.6665" stroke="white" stroke-width="1.5" stroke-linecap="round" stroke-linejoin="round"/>
<path d="M5.33317 9.33337H2.6665" stroke="white" stroke-width="1.5" stroke-linecap="round" stroke-linejoin="round"/>
</svg>
