<svg width="18" height="23" viewBox="0 0 18 23" fill="none" xmlns="http://www.w3.org/2000/svg">
<path d="M6.33289 13.7728L5.04171 12.1957C4.58701 11.6403 3.86314 11.6825 3.44964 12.2887C3.07595 12.8364 3.08695 13.6583 3.47508 14.1892L7.68396 19.9471C7.95179 20.3135 8.32522 20.5214 8.71679 20.5214C9.48533 20.5214 10.7489 20.5214 11.9996 20.5214C13.6996 20.5214 14.8329 18.7045 14.8329 16.8875C14.8329 16.8875 14.8329 10.6582 14.8329 9.10078" stroke="white" stroke-width="1.5" stroke-linecap="round" stroke-linejoin="round"/>
<path d="M12.708 9.61983C12.708 9.61983 12.708 9.50616 12.708 9.10071C12.708 7.02423 14.833 7.02423 14.833 9.10071" stroke="white" stroke-width="1.5" stroke-linecap="round" stroke-linejoin="round"/>
<path d="M10.583 9.61987C10.583 9.61987 10.583 8.87342 10.583 8.06252C10.583 5.98604 12.708 5.98604 12.708 8.06252C12.708 8.26524 12.708 8.89803 12.708 9.10075C12.708 9.50621 12.708 9.61987 12.708 9.61987" stroke="white" stroke-width="1.5" stroke-linecap="round" stroke-linejoin="round"/>
<path d="M8.45801 9.61997C8.45801 9.61997 8.45801 8.36243 8.45801 7.34878C8.45801 5.27231 10.583 5.27231 10.583 7.34878C10.583 7.34878 10.583 7.85984 10.583 8.06257C10.583 8.87348 10.583 9.61997 10.583 9.61997" stroke="white" stroke-width="1.5" stroke-linecap="round" stroke-linejoin="round"/>
<path d="M6.33301 13.7728V3.7149C6.33301 2.96231 6.8087 2.35222 7.39551 2.35222C7.98229 2.35222 8.45801 2.96139 8.45801 3.71399C8.45801 4.79568 8.45801 6.29634 8.45801 7.34873C8.45801 8.36237 8.45801 9.61988 8.45801 9.61988" stroke="white" stroke-width="1.5" stroke-linecap="round" stroke-linejoin="round"/>
</svg>
