<svg width="33" height="43" viewBox="0 0 33 43" fill="none" xmlns="http://www.w3.org/2000/svg">
<path d="M21 27.3444L23.8682 23.6658C23.9526 23.5576 24 23.4108 24 23.2578V18.2064C24 17.4095 23.4963 16.7636 22.875 16.7636C22.2537 16.7636 21.75 17.4095 21.75 18.2064V22.5349" stroke="#FB8E26" stroke-width="1.5" stroke-linecap="round" stroke-linejoin="round"/>
<path d="M21 23.4968L21.6436 22.6714C21.7118 22.584 21.75 22.4655 21.75 22.342C21.75 22.1655 21.6722 22.0042 21.5492 21.9252L21.217 21.7122C20.6396 21.3419 19.942 21.487 19.4855 22.0725L18.8144 22.9333C18.533 23.2942 18.375 23.7835 18.375 24.2937V27.3444" stroke="#FB8E26" stroke-width="1.5" stroke-linecap="round" stroke-linejoin="round"/>
<path d="M12 27.3444L9.13181 23.6658C9.04741 23.5576 9 23.4108 9 23.2578V18.2064C9 17.4095 9.50368 16.7636 10.125 16.7636C10.7463 16.7636 11.25 17.4095 11.25 18.2064V22.5349" stroke="#FB8E26" stroke-width="1.5" stroke-linecap="round" stroke-linejoin="round"/>
<path d="M12 23.4968L11.3564 22.6714C11.2883 22.584 11.25 22.4655 11.25 22.342C11.25 22.1655 11.3277 22.0042 11.4508 21.9252L11.783 21.7122C12.3605 21.3419 13.0579 21.487 13.5145 22.0725L14.1857 22.9333C14.467 23.2942 14.625 23.7835 14.625 24.2937V27.3444" stroke="#FB8E26" stroke-width="1.5" stroke-linecap="round" stroke-linejoin="round"/>
<path d="M17.75 19.6492H15.25V17.4048H13.5V14.1985H15.25V11.9541H17.75V14.1985H19.5V17.4048H17.75V19.6492Z" stroke="#FB8E26" stroke-width="1.5" stroke-linecap="round" stroke-linejoin="round"/>
<path d="M29.0556 18.7124C29.1413 19.3357 29.1995 19.9711 29.2286 20.6167L28.7291 20.6391C28.743 20.9481 28.75 21.2595 28.75 21.573C28.75 21.8866 28.743 22.198 28.7291 22.507L29.2286 22.5294C29.1995 23.1749 29.1413 23.8104 29.0556 24.4337L28.5602 24.3656C28.4743 24.9899 28.3602 25.6013 28.2196 26.1978L28.7062 26.3125C28.5579 26.9417 28.3808 27.5549 28.1769 28.1495L27.704 27.9874C27.4998 28.5829 27.2681 29.1588 27.0112 29.7126L27.4647 29.923C27.1923 30.5102 26.892 31.0736 26.5662 31.6103L26.1388 31.3509C25.813 31.8875 25.4614 32.3958 25.0866 32.8727L25.4797 33.1817C25.0795 33.6909 24.6532 34.1662 24.2035 34.6042L23.8547 34.246C23.4081 34.6809 22.9387 35.0765 22.4494 35.4295L22.7419 35.835C22.2191 36.2122 21.6734 36.5435 21.1083 36.8245L20.8856 36.3769C20.3377 36.6494 19.7716 36.872 19.1908 37.0408L19.3303 37.5209C18.7208 37.6981 18.0947 37.8193 17.4554 37.8801L17.4081 37.3823C17.1084 37.4108 16.8056 37.4253 16.5 37.4253C16.1944 37.4253 15.8916 37.4108 15.5919 37.3823L15.5446 37.8801C14.9053 37.8193 14.2792 37.6981 13.6697 37.5209L13.8092 37.0408C13.2284 36.872 12.6623 36.6494 12.1144 36.3769L11.8917 36.8246C11.3266 36.5435 10.7809 36.2122 10.2581 35.835L10.5506 35.4295C10.0613 35.0765 9.59187 34.6809 9.14534 34.246L8.7965 34.6042C8.34679 34.1662 7.92046 33.6909 7.5203 33.1817L7.91342 32.8727C7.5386 32.3958 7.18698 31.8875 6.86121 31.3509L6.4338 31.6103C6.10799 31.0736 5.8077 30.5102 5.53527 29.923L5.98883 29.7126C5.7319 29.1588 5.50025 28.5829 5.29605 27.9874L4.82308 28.1495C4.61918 27.5549 4.44208 26.9417 4.29376 26.3125L4.78042 26.1978C4.63982 25.6013 4.52566 24.9899 4.43978 24.3656L3.94444 24.4337C3.85869 23.8104 3.80047 23.1749 3.77144 22.5294L4.27094 22.507C4.25705 22.198 4.25 21.8866 4.25 21.573C4.25 21.2595 4.25705 20.9481 4.27094 20.6391L3.77144 20.6167C3.80047 19.9711 3.85869 19.3357 3.94444 18.7124L4.43978 18.7805C4.52566 18.1562 4.63981 17.5447 4.78042 16.9483L4.29376 16.8336C4.44208 16.2044 4.61918 15.5912 4.82308 14.9965L5.29605 15.1587C5.50025 14.5632 5.7319 13.9872 5.98883 13.4335L5.53527 13.223C5.8077 12.6359 6.10799 12.0724 6.4338 11.5357L6.86121 11.7952C7.18698 11.2586 7.5386 10.7503 7.91343 10.2733L7.5203 9.96439C7.92046 9.45522 8.3468 8.97984 8.7965 8.54188L9.14534 8.90008C9.59187 8.46521 10.0613 8.06956 10.5506 7.71659L10.2581 7.3111C10.7809 6.9339 11.3266 6.60262 11.8917 6.32153L12.1144 6.76922C12.6623 6.49671 13.2284 6.27412 13.8092 6.10527L13.6697 5.62514C14.2792 5.44795 14.9053 5.32676 15.5446 5.26603L15.5919 5.76379C15.8916 5.73531 16.1944 5.72081 16.5 5.72081C16.8056 5.72081 17.1084 5.73531 17.4081 5.76379L17.4554 5.26603C18.0947 5.32676 18.7208 5.44795 19.3303 5.62514L19.1908 6.10527C19.7716 6.27412 20.3377 6.49671 20.8856 6.76922L21.1083 6.32153C21.6734 6.60262 22.2191 6.9339 22.7419 7.3111L22.4494 7.71659C22.9387 8.06956 23.4081 8.46521 23.8547 8.90008L24.2035 8.54188C24.6532 8.97985 25.0795 9.45522 25.4797 9.96439L25.0866 10.2733C25.4614 10.7503 25.813 11.2586 26.1388 11.7952L26.5662 11.5357C26.892 12.0724 27.1923 12.6359 27.4647 13.223L27.0112 13.4335C27.2681 13.9872 27.4998 14.5632 27.704 15.1587L28.1769 14.9965C28.3808 15.5912 28.5579 16.2044 28.7062 16.8336L28.2196 16.9483C28.3602 17.5447 28.4743 18.1562 28.5602 18.7805L29.0556 18.7124Z" stroke="#FFD35F" stroke-opacity="0.5" stroke-dasharray="2 2"/>
<path d="M32.8155 18.3982C32.897 19.0925 32.9521 19.7979 32.9796 20.5126L32.48 20.5318C32.4933 20.8767 32.5 21.2238 32.5 21.573C32.5 21.9222 32.4933 22.2694 32.48 22.6143L32.9796 22.6335C32.9521 23.3482 32.897 24.0535 32.8155 24.7478L32.319 24.6896C32.2372 25.3866 32.1284 26.0721 31.9941 26.7443L32.4844 26.8422C32.3442 27.5438 32.1767 28.2314 31.9834 28.9029L31.5029 28.7646C31.3088 29.4388 31.0882 30.0962 30.8429 30.7348L31.3096 30.9141C31.0528 31.5826 30.7692 32.2313 30.4607 32.8577L30.0122 32.6368C29.7026 33.2654 29.3677 33.8706 29.0092 34.4502L29.4345 34.7132C29.0577 35.3225 28.6553 35.9045 28.2293 36.4566L27.8334 36.1512C27.4066 36.7044 26.9561 37.2262 26.4841 37.7138L26.8434 38.0615C26.3453 38.5762 25.8233 39.0545 25.28 39.4933L24.9658 39.1043C24.4265 39.5398 23.8663 39.9346 23.2878 40.2856L23.5472 40.713C22.9379 41.0827 22.3082 41.4059 21.6607 41.6791L21.4663 41.2184C20.8368 41.484 20.1906 41.7003 19.5305 41.864L19.6509 42.3493C18.968 42.5187 18.2702 42.634 17.5601 42.6918L17.5196 42.1934C17.1826 42.2208 16.8426 42.2347 16.5 42.2347C16.1574 42.2347 15.8175 42.2208 15.4804 42.1934L15.4399 42.6918C14.7298 42.634 14.032 42.5187 13.3491 42.3493L13.4695 41.864C12.8094 41.7003 12.1632 41.484 11.5337 41.2184L11.3393 41.6791C10.6918 41.4059 10.0621 41.0827 9.45285 40.713L9.7122 40.2856C9.13372 39.9346 8.57349 39.5398 8.03415 39.1043L7.72001 39.4933C7.1767 39.0545 6.65474 38.5762 6.15659 38.0615L6.51586 37.7138C6.0439 37.2262 5.59336 36.7044 5.16657 36.1512L4.77069 36.4566C4.34474 35.9045 3.94232 35.3225 3.56551 34.7132L3.99076 34.4502C3.63233 33.8706 3.29736 33.2654 2.98782 32.6368L2.53926 32.8577C2.23078 32.2313 1.94722 31.5826 1.69038 30.9141L2.15712 30.7348C1.91179 30.0962 1.69123 29.4388 1.49712 28.7646L1.01664 28.9029C0.823303 28.2314 0.655768 27.5438 0.515575 26.8422L1.00588 26.7443C0.871575 26.0721 0.762816 25.3866 0.681049 24.6896L0.184454 24.7478C0.103006 24.0535 0.0478599 23.3482 0.0203579 22.6335L0.519988 22.6143C0.506716 22.2694 0.5 21.9222 0.5 21.573C0.5 21.2238 0.506716 20.8767 0.519988 20.5318L0.0203578 20.5126C0.0478597 19.7979 0.103006 19.0925 0.184453 18.3982L0.681048 18.4565C0.762816 17.7594 0.871575 17.0739 1.00588 16.4018L0.515575 16.3038C0.655767 15.6022 0.823303 14.9147 1.01664 14.2431L1.49712 14.3815C1.69123 13.7073 1.91179 13.0498 2.15712 12.4113L1.69038 12.2319C1.94722 11.5634 2.23078 10.9148 2.53926 10.2884L2.98782 10.5092C3.29736 9.88068 3.63233 9.27542 3.99076 8.69586L3.56551 8.43287C3.94232 7.82359 4.34474 7.24155 4.77069 6.68944L5.16657 6.99485C5.59336 6.44165 6.0439 5.91989 6.51586 5.43228L6.15659 5.08454C6.65474 4.56987 7.17669 4.09158 7.72 3.6528L8.03415 4.04179C8.57349 3.60622 9.13372 3.21145 9.71219 2.86049L9.45284 2.43301C10.0621 2.06338 10.6918 1.74019 11.3393 1.467L11.5337 1.92767C12.1632 1.66204 12.8094 1.44573 13.4695 1.28202L13.3491 0.796724C14.032 0.627384 14.7298 0.512039 15.4399 0.454293L15.4804 0.952648C15.8175 0.925235 16.1574 0.911316 16.5 0.911316C16.8426 0.911316 17.1825 0.925235 17.5196 0.952648L17.5601 0.454293C18.2702 0.512039 18.968 0.627383 19.6509 0.796723L19.5305 1.28202C20.1906 1.44573 20.8368 1.66203 21.4663 1.92767L21.6607 1.467C22.3082 1.74019 22.9379 2.06338 23.5472 2.43301L23.2878 2.86049C23.8663 3.21145 24.4265 3.60621 24.9658 4.04179L25.28 3.6528C25.8233 4.09158 26.3453 4.56987 26.8434 5.08454L26.4841 5.43228C26.9561 5.91989 27.4066 6.44165 27.8334 6.99485L28.2293 6.68944C28.6553 7.24155 29.0577 7.82359 29.4345 8.43287L29.0092 8.69586C29.3677 9.27542 29.7026 9.88068 30.0122 10.5092L30.4607 10.2884C30.7692 10.9148 31.0528 11.5634 31.3096 12.2319L30.8429 12.4113C31.0882 13.0498 31.3088 13.7073 31.5029 14.3815L31.9834 14.2431C32.1767 14.9146 32.3442 15.6022 32.4844 16.3038L31.9941 16.4018C32.1284 17.0739 32.2372 17.7594 32.319 18.4565L32.8155 18.3982Z" stroke="#FFD35F" stroke-opacity="0.7" stroke-dasharray="2 2"/>
</svg>
