<svg width="24" height="25" viewBox="0 0 24 25" fill="none" xmlns="http://www.w3.org/2000/svg">
<path d="M13.8063 5.00977L12.8152 3.01353C12.4818 2.34185 11.5185 2.34185 11.185 3.01353L10.6895 4.01165" stroke="#FF0000" stroke-width="1.5" stroke-linecap="round" stroke-linejoin="round"/>
<path d="M15.011 7.43652L15.4126 8.24551L16.8648 8.45656" stroke="#FF0000" stroke-width="1.5" stroke-linecap="round" stroke-linejoin="round"/>
<path d="M19.7693 8.87891L21.2215 9.08996C21.9668 9.19827 22.2639 10.1092 21.7243 10.6317L20.6736 11.6492" stroke="#FF0000" stroke-width="1.5" stroke-linecap="round" stroke-linejoin="round"/>
<path d="M18.5724 13.6841L17.5217 14.7016L17.7697 16.139" stroke="#FF0000" stroke-width="1.5" stroke-linecap="round" stroke-linejoin="round"/>
<path d="M18.2657 19.0137L18.5136 20.4511C18.641 21.1895 17.8615 21.7525 17.1946 21.4038L15.896 20.7248" stroke="#FF0000" stroke-width="1.5" stroke-linecap="round" stroke-linejoin="round"/>
<path d="M10.428 19.51L12.0001 18.688L13.2987 19.367" stroke="#FF0000" stroke-width="1.5" stroke-linecap="round" stroke-linejoin="round"/>
<path d="M5.67145 19.3789L5.48645 20.4514C5.35908 21.1897 6.13859 21.7528 6.80546 21.4041L7.65273 20.9611" stroke="#FF0000" stroke-width="1.5" stroke-linecap="round" stroke-linejoin="round"/>
<path d="M6.25265 16.01L6.47832 14.7017L5.78345 14.0288" stroke="#FF0000" stroke-width="1.5" stroke-linecap="round" stroke-linejoin="round"/>
<path d="M3.69875 12.0095L2.27575 10.6314C1.73617 10.1088 2.03322 9.19796 2.77852 9.08964L3.88926 8.92822" stroke="#FF0000" stroke-width="1.5" stroke-linecap="round" stroke-linejoin="round"/>
<path d="M7 8.47661L8.58737 8.24592L9.39062 6.62793" stroke="#FF0000" stroke-width="1.5" stroke-linecap="round" stroke-linejoin="round"/>
</svg>
